<?xml version="1.0" encoding="UTF-8"?>
<svg id="Layer_2" data-name="Layer 2" xmlns="http://www.w3.org/2000/svg" viewBox="0 0 1399.3 667.93">
  <defs>
    <style>
      .cls-1 {
        fill: #263b7f;
        stroke: #231f20;
      }

      .cls-1, .cls-2 {
        stroke-miterlimit: 10;
      }

      .cls-3 {
        fill: #fff;
      }

      .cls-2 {
        fill: none;
        stroke: #fff;
        stroke-width: 23px;
      }

      .cls-4 {
        fill: #15161a;
      }
    </style>
  </defs>
  <circle class="cls-1" cx="725.13" cy="194.36" r="193.86"/>
  <path class="cls-2" d="M709.62,198h137.16c0,67.19-54.47,121.65-121.65,121.65s-121.65-54.47-121.65-121.65,54.47-121.65,121.65-121.65c21.36,0,41.43,5.5,58.87,15.17l5.92,3.43"/>
  <path class="cls-3" d="M808.4,97.16c8.14,0,14.74,6.6,14.74,14.74s-6.6,14.74-14.74,14.74-14.74-6.6-14.74-14.74,6.6-14.74,14.74-14.74M808.4,83.16c-15.85,0-28.74,12.89-28.74,28.74s12.89,28.74,28.74,28.74,28.74-12.89,28.74-28.74-12.89-28.74-28.74-28.74h0Z"/>
  <path class="cls-3" d="M689.91,183.26c8.14,0,14.74,6.6,14.74,14.74s-6.6,14.74-14.74,14.74-14.74-6.6-14.74-14.74,6.6-14.74,14.74-14.74M689.91,169.26c-15.85,0-28.74,12.89-28.74,28.74s12.89,28.74,28.74,28.74,28.74-12.89,28.74-28.74-12.89-28.74-28.74-28.74h0Z"/>
  <g>
    <path class="cls-4" d="M64.45,632.28c-9.14,0-17.6-1.66-25.37-4.97-7.77-3.31-14.6-7.94-20.48-13.88-5.89-5.94-10.46-12.91-13.71-20.91-3.26-8-4.89-16.74-4.89-26.22s1.6-18.25,4.8-26.31c3.2-8.06,7.68-15.02,13.46-20.91,5.77-5.88,12.51-10.46,20.23-13.71,7.71-3.26,16.2-4.88,25.45-4.88s17.34,1.54,24.6,4.63c7.25,3.08,13.4,7.17,18.43,12.25,5.03,5.09,8.63,10.66,10.8,16.71l-20.74,9.94c-2.4-6.51-6.49-11.85-12.26-16.03-5.77-4.17-12.71-6.26-20.83-6.26s-15.06,1.89-21.17,5.66c-6.11,3.77-10.86,8.97-14.23,15.6-3.37,6.63-5.06,14.4-5.06,23.31s1.74,16.71,5.23,23.4c3.48,6.68,8.31,11.91,14.48,15.68,6.17,3.77,13.25,5.66,21.25,5.66,6.4,0,12.34-1.29,17.83-3.86,5.48-2.57,9.91-6.23,13.28-10.97,3.37-4.74,5.06-10.37,5.06-16.88v-9.77l10.63,9.26h-47.31v-19.71h59.99v12.85c0,9.83-1.66,18.51-4.97,26.05-3.32,7.54-7.8,13.88-13.45,19.03s-12.03,8.97-19.11,11.48c-7.09,2.51-14.4,3.77-21.94,3.77Z"/>
    <path class="cls-4" d="M180.48,632.28c-9.6,0-18.03-2.17-25.28-6.51-7.26-4.34-12.88-10.23-16.88-17.65-4-7.43-6-15.65-6-24.68s2.06-17.68,6.17-24.94c4.11-7.25,9.65-13,16.63-17.23,6.97-4.23,14.85-6.34,23.65-6.34,7.31,0,13.74,1.2,19.28,3.6,5.54,2.4,10.25,5.71,14.14,9.94,3.88,4.23,6.86,9.06,8.91,14.48,2.06,5.43,3.09,11.29,3.09,17.57,0,1.71-.09,3.4-.26,5.06-.17,1.66-.49,3.17-.94,4.54h-71.99v-17.31h59.3l-10.8,8.06c1.14-5.25.94-9.94-.6-14.06-1.54-4.11-4.06-7.37-7.54-9.77-3.49-2.4-7.69-3.6-12.6-3.6s-8.86,1.2-12.51,3.6c-3.66,2.4-6.43,5.83-8.31,10.28-1.89,4.46-2.6,9.89-2.14,16.28-.46,5.72.31,10.77,2.31,15.17,2,4.4,4.97,7.8,8.91,10.2,3.94,2.4,8.48,3.6,13.63,3.6s9.51-1.08,13.11-3.26c3.6-2.17,6.43-5.08,8.48-8.74l18.17,8.91c-1.83,4.46-4.69,8.4-8.57,11.83-3.89,3.43-8.51,6.11-13.88,8.06-5.37,1.94-11.2,2.91-17.48,2.91Z"/>
    <path class="cls-4" d="M236.7,630.22v-93.24h21.25v18.34l-1.71-3.26c2.17-5.6,5.74-9.86,10.71-12.77,4.97-2.91,10.77-4.37,17.4-4.37s12.94,1.49,18.25,4.46c5.31,2.97,9.45,7.11,12.43,12.43,2.97,5.31,4.46,11.46,4.46,18.43v59.99h-22.45v-54.68c0-4.11-.8-7.65-2.4-10.63-1.6-2.97-3.83-5.25-6.69-6.86-2.86-1.6-6.11-2.4-9.77-2.4s-6.92.8-9.77,2.4c-2.86,1.6-5.09,3.89-6.68,6.86-1.6,2.97-2.4,6.51-2.4,10.63v54.68h-22.62Z"/>
    <path class="cls-4" d="M379.65,632.28c-9.03,0-17.28-2.11-24.77-6.34-7.49-4.23-13.46-10-17.91-17.31-4.46-7.31-6.68-15.65-6.68-25.02s2.23-17.71,6.68-25.02c4.46-7.31,10.4-13.08,17.83-17.31,7.43-4.23,15.71-6.34,24.85-6.34s17.6,2.12,25.02,6.34c7.43,4.23,13.34,9.97,17.74,17.23,4.4,7.26,6.6,15.63,6.6,25.11s-2.23,17.71-6.68,25.02c-4.46,7.31-10.4,13.09-17.83,17.31-7.43,4.23-15.71,6.34-24.85,6.34ZM379.65,611.71c5.14,0,9.63-1.2,13.46-3.6,3.83-2.4,6.86-5.74,9.08-10.03,2.23-4.29,3.34-9.11,3.34-14.48s-1.11-10.17-3.34-14.4c-2.23-4.23-5.26-7.54-9.08-9.94-3.83-2.4-8.31-3.6-13.46-3.6s-9.49,1.2-13.37,3.6c-3.89,2.4-6.94,5.72-9.17,9.94-2.23,4.23-3.34,9.03-3.34,14.4s1.11,10.2,3.34,14.48,5.28,7.63,9.17,10.03c3.88,2.4,8.34,3.6,13.37,3.6Z"/>
    <path class="cls-4" d="M441.52,630.22v-93.24h21.25v21.6l-2.4-3.43c1.71-6.86,5.14-11.94,10.28-15.25,5.14-3.31,11.2-4.97,18.17-4.97,7.65,0,14.4,2,20.23,6,5.83,4,9.6,9.26,11.31,15.77l-6.34.51c2.85-7.43,7.14-13,12.85-16.71,5.71-3.71,12.28-5.57,19.71-5.57,6.63,0,12.54,1.49,17.74,4.46,5.2,2.97,9.28,7.11,12.25,12.43,2.97,5.31,4.46,11.46,4.46,18.43v59.99h-22.45v-54.68c0-4.11-.74-7.65-2.23-10.63-1.49-2.97-3.57-5.25-6.26-6.86-2.69-1.6-5.86-2.4-9.51-2.4s-6.68.8-9.43,2.4c-2.74,1.6-4.86,3.89-6.34,6.86-1.49,2.97-2.23,6.51-2.23,10.63v54.68h-22.45v-54.68c0-4.11-.74-7.65-2.23-10.63-1.49-2.97-3.57-5.25-6.26-6.86-2.69-1.6-5.86-2.4-9.51-2.4s-6.69.8-9.43,2.4c-2.74,1.6-4.86,3.89-6.34,6.86-1.49,2.97-2.23,6.51-2.23,10.63v54.68h-22.62Z"/>
    <path class="cls-4" d="M624.07,632.28c-6.51,0-12.2-1.09-17.05-3.26-4.86-2.17-8.6-5.28-11.23-9.34-2.63-4.05-3.94-8.77-3.94-14.14s1.17-9.74,3.51-13.8c2.34-4.05,5.91-7.46,10.71-10.2,4.8-2.74,10.85-4.68,18.17-5.83l30.34-4.97v17.14l-26.05,4.63c-4.46.8-7.77,2.2-9.94,4.2-2.17,2-3.26,4.66-3.26,7.97s1.23,5.74,3.69,7.63c2.46,1.89,5.51,2.83,9.17,2.83,4.68,0,8.83-1,12.43-3,3.6-2,6.37-4.77,8.31-8.31,1.94-3.54,2.91-7.37,2.91-11.48v-24.17c0-4-1.54-7.34-4.63-10.03-3.09-2.68-7.2-4.03-12.34-4.03-4.8,0-9.06,1.31-12.77,3.94-3.71,2.63-6.43,6-8.14,10.11l-18.34-8.91c1.83-4.91,4.71-9.17,8.66-12.77,3.94-3.6,8.6-6.43,13.97-8.48,5.37-2.06,11.2-3.08,17.48-3.08,7.65,0,14.4,1.4,20.23,4.2,5.83,2.8,10.37,6.71,13.63,11.74,3.26,5.03,4.89,10.8,4.89,17.31v62.05h-21.25v-15.94l4.8-.17c-2.4,3.89-5.29,7.2-8.66,9.94-3.37,2.74-7.14,4.8-11.31,6.17-4.17,1.37-8.83,2.06-13.97,2.06Z"/>
    <path class="cls-4" d="M768.73,632.28c-8,0-15.46-1.49-22.37-4.46-6.92-2.97-12.86-7.11-17.83-12.43s-8.66-11.51-11.05-18.6l19.54-8.4c3.08,7.31,7.54,13.06,13.37,17.23,5.83,4.17,12.4,6.26,19.71,6.26,4.11,0,7.68-.66,10.71-1.97,3.03-1.31,5.37-3.11,7.03-5.4,1.66-2.28,2.49-5.03,2.49-8.23,0-3.77-1.11-6.86-3.34-9.26-2.23-2.4-5.57-4.34-10.03-5.83l-24.51-7.88c-9.94-3.08-17.46-7.68-22.54-13.8-5.08-6.11-7.63-13.4-7.63-21.85,0-7.31,1.83-13.77,5.48-19.37,3.66-5.6,8.71-9.97,15.17-13.11,6.46-3.14,13.85-4.71,22.2-4.71,7.65,0,14.68,1.34,21.08,4.03,6.4,2.69,11.91,6.4,16.54,11.14,4.63,4.74,8.08,10.31,10.37,16.71l-19.37,8.57c-2.4-6.28-6.14-11.2-11.23-14.74-5.09-3.54-10.88-5.31-17.4-5.31-3.89,0-7.31.66-10.28,1.97-2.97,1.31-5.29,3.17-6.94,5.57-1.66,2.4-2.49,5.14-2.49,8.23,0,3.54,1.14,6.66,3.43,9.34,2.28,2.69,5.77,4.77,10.46,6.26l23.48,7.37c10.17,3.32,17.8,7.88,22.88,13.71,5.08,5.83,7.63,13.03,7.63,21.6,0,7.31-1.89,13.77-5.66,19.37-3.77,5.6-8.97,10-15.6,13.2-6.63,3.2-14.4,4.8-23.31,4.8Z"/>
    <path class="cls-4" d="M839.34,667.93c-2.51,0-4.97-.2-7.37-.6-2.4-.4-4.57-1.11-6.51-2.14v-18.68c1.48.34,3.28.69,5.4,1.03,2.11.34,4.08.51,5.91.51,5.14,0,8.88-1.17,11.23-3.51,2.34-2.34,4.43-5.46,6.26-9.34l6.17-14.4-.34,18.85-40.62-102.67h24.17l28.45,75.76h-8.57l28.28-75.76h24.34l-40.62,102.67c-2.4,5.94-5.31,11.06-8.74,15.34-3.43,4.28-7.4,7.51-11.91,9.68-4.51,2.17-9.68,3.26-15.51,3.26Z"/>
    <path class="cls-4" d="M959.66,632.28c-9.94,0-18.6-2.37-25.97-7.11-7.37-4.74-12.49-11.17-15.34-19.28l16.97-8.06c2.4,5.26,5.74,9.37,10.03,12.34,4.29,2.97,9.06,4.46,14.31,4.46,4,0,7.2-.91,9.6-2.74,2.4-1.83,3.6-4.23,3.6-7.2,0-1.83-.49-3.34-1.46-4.54-.97-1.2-2.26-2.23-3.86-3.08-1.6-.86-3.43-1.57-5.49-2.14l-15.25-4.29c-7.77-2.17-13.68-5.63-17.74-10.37-4.06-4.74-6.08-10.31-6.08-16.71,0-5.71,1.46-10.71,4.37-15,2.91-4.29,6.97-7.63,12.17-10.03,5.2-2.4,11.17-3.6,17.91-3.6,8.8,0,16.57,2.12,23.31,6.34,6.74,4.23,11.54,10.17,14.4,17.83l-17.14,8.06c-1.6-4.23-4.29-7.57-8.06-10.03-3.77-2.46-8-3.69-12.68-3.69-3.77,0-6.74.83-8.91,2.49-2.17,1.66-3.26,3.92-3.26,6.77,0,1.6.46,3.03,1.37,4.28.91,1.26,2.2,2.29,3.86,3.09,1.66.8,3.57,1.54,5.74,2.23l14.91,4.46c7.65,2.29,13.57,5.72,17.74,10.28,4.17,4.57,6.26,10.17,6.26,16.8,0,5.6-1.49,10.54-4.46,14.83-2.97,4.28-7.09,7.63-12.34,10.03-5.26,2.4-11.43,3.6-18.51,3.6Z"/>
    <path class="cls-4" d="M1050.5,631.25c-10.51,0-18.68-2.88-24.51-8.66-5.83-5.77-8.74-13.91-8.74-24.42v-41.14h-15.94v-20.05h1.71c4.57,0,8.08-1.2,10.54-3.6,2.46-2.4,3.68-5.88,3.68-10.46v-7.2h22.62v21.25h21.42v20.05h-21.42v39.94c0,3.09.54,5.72,1.63,7.88,1.08,2.17,2.8,3.83,5.14,4.97,2.34,1.14,5.34,1.71,9,1.71.8,0,1.74-.06,2.83-.17,1.08-.11,2.14-.23,3.17-.34v19.2c-1.6.23-3.43.46-5.48.69-2.06.23-3.94.34-5.66.34Z"/>
    <path class="cls-4" d="M1117.87,632.28c-9.6,0-18.03-2.17-25.28-6.51-7.26-4.34-12.88-10.23-16.88-17.65-4-7.43-6-15.65-6-24.68s2.06-17.68,6.17-24.94c4.11-7.25,9.65-13,16.63-17.23,6.97-4.23,14.85-6.34,23.65-6.34,7.31,0,13.74,1.2,19.28,3.6,5.54,2.4,10.25,5.71,14.14,9.94,3.88,4.23,6.86,9.06,8.91,14.48,2.06,5.43,3.08,11.29,3.08,17.57,0,1.71-.08,3.4-.26,5.06-.17,1.66-.49,3.17-.94,4.54h-71.99v-17.31h59.3l-10.8,8.06c1.14-5.25.94-9.94-.6-14.06-1.54-4.11-4.06-7.37-7.54-9.77-3.49-2.4-7.69-3.6-12.6-3.6s-8.86,1.2-12.51,3.6c-3.66,2.4-6.43,5.83-8.31,10.28-1.89,4.46-2.6,9.89-2.14,16.28-.46,5.72.31,10.77,2.31,15.17,2,4.4,4.97,7.8,8.91,10.2,3.94,2.4,8.48,3.6,13.63,3.6s9.51-1.08,13.11-3.26c3.6-2.17,6.43-5.08,8.48-8.74l18.17,8.91c-1.83,4.46-4.69,8.4-8.57,11.83-3.89,3.43-8.51,6.11-13.88,8.06-5.37,1.94-11.2,2.91-17.48,2.91Z"/>
    <path class="cls-4" d="M1174.09,630.22v-93.24h21.25v21.6l-2.4-3.43c1.71-6.86,5.14-11.94,10.28-15.25,5.14-3.31,11.2-4.97,18.17-4.97,7.65,0,14.4,2,20.23,6,5.83,4,9.6,9.26,11.31,15.77l-6.34.51c2.86-7.43,7.14-13,12.86-16.71,5.71-3.71,12.28-5.57,19.71-5.57,6.63,0,12.54,1.49,17.74,4.46,5.2,2.97,9.28,7.11,12.25,12.43,2.97,5.31,4.46,11.46,4.46,18.43v59.99h-22.45v-54.68c0-4.11-.74-7.65-2.23-10.63-1.49-2.97-3.57-5.25-6.26-6.86-2.69-1.6-5.86-2.4-9.51-2.4s-6.68.8-9.43,2.4c-2.74,1.6-4.86,3.89-6.34,6.86-1.49,2.97-2.23,6.51-2.23,10.63v54.68h-22.45v-54.68c0-4.11-.75-7.65-2.23-10.63-1.49-2.97-3.57-5.25-6.26-6.86-2.69-1.6-5.86-2.4-9.51-2.4s-6.68.8-9.43,2.4c-2.74,1.6-4.86,3.89-6.34,6.86-1.49,2.97-2.23,6.51-2.23,10.63v54.68h-22.62Z"/>
    <path class="cls-4" d="M1363.82,632.28c-9.94,0-18.6-2.37-25.97-7.11-7.37-4.74-12.49-11.17-15.34-19.28l16.97-8.06c2.4,5.26,5.74,9.37,10.03,12.34,4.29,2.97,9.06,4.46,14.31,4.46,4,0,7.2-.91,9.6-2.74,2.4-1.83,3.6-4.23,3.6-7.2,0-1.83-.49-3.34-1.46-4.54-.97-1.2-2.26-2.23-3.86-3.08-1.6-.86-3.43-1.57-5.49-2.14l-15.25-4.29c-7.77-2.17-13.68-5.63-17.74-10.37-4.06-4.74-6.08-10.31-6.08-16.71,0-5.71,1.46-10.71,4.37-15,2.91-4.29,6.97-7.63,12.17-10.03,5.2-2.4,11.17-3.6,17.91-3.6,8.8,0,16.57,2.12,23.31,6.34,6.74,4.23,11.54,10.17,14.4,17.83l-17.14,8.06c-1.6-4.23-4.29-7.57-8.06-10.03-3.77-2.46-8-3.69-12.68-3.69-3.77,0-6.74.83-8.91,2.49-2.17,1.66-3.26,3.92-3.26,6.77,0,1.6.46,3.03,1.37,4.28.91,1.26,2.2,2.29,3.86,3.09,1.66.8,3.57,1.54,5.74,2.23l14.91,4.46c7.65,2.29,13.57,5.72,17.74,10.28,4.17,4.57,6.26,10.17,6.26,16.8,0,5.6-1.49,10.54-4.46,14.83-2.97,4.28-7.09,7.63-12.34,10.03-5.26,2.4-11.43,3.6-18.51,3.6Z"/>
  </g>
</svg>